<mxfile host="app.diagrams.net" agent="Mozilla/5.0 (Windows NT 10.0; Win64; x64) AppleWebKit/537.36 (KHTML, like Gecko) Chrome/133.0.0.0 Safari/537.36" version="26.0.16">
  <diagram name="Sida-1" id="MhJn7zfzyjGHDcK_jRFw">
    <mxGraphModel dx="607" dy="738" grid="1" gridSize="10" guides="0" tooltips="1" connect="0" arrows="0" fold="1" page="1" pageScale="1" pageWidth="827" pageHeight="1169" background="none" math="0" shadow="0">
      <root>
        <mxCell id="0" />
        <mxCell id="1" parent="0" />
        <mxCell id="jNJo2oI_v9kwskUjXA3D-1" value="&lt;b&gt;&lt;font style=&quot;font-size: 23px;&quot;&gt;High Level Architecture&lt;/font&gt;&lt;/b&gt;" style="text;html=1;align=center;verticalAlign=middle;resizable=0;points=[];autosize=1;strokeColor=none;fillColor=none;" parent="1" vertex="1">
          <mxGeometry x="840" y="10" width="280" height="40" as="geometry" />
        </mxCell>
        <mxCell id="jNJo2oI_v9kwskUjXA3D-2" value="" style="rounded=0;whiteSpace=wrap;html=1;fillColor=none;dashed=1;" parent="1" vertex="1">
          <mxGeometry x="971" y="280" width="270" height="620" as="geometry" />
        </mxCell>
        <mxCell id="jNJo2oI_v9kwskUjXA3D-3" value="Sources" style="rounded=0;whiteSpace=wrap;html=1;fontSize=24;strokeColor=none;" parent="1" vertex="1">
          <mxGeometry x="1046" y="250" width="120" height="60" as="geometry" />
        </mxCell>
        <mxCell id="jNJo2oI_v9kwskUjXA3D-4" value="" style="rounded=0;whiteSpace=wrap;html=1;fillColor=none;dashed=1;" parent="1" vertex="1">
          <mxGeometry x="1260" y="280" width="530" height="620" as="geometry" />
        </mxCell>
        <mxCell id="jNJo2oI_v9kwskUjXA3D-5" value="Data Warehouse" style="rounded=0;whiteSpace=wrap;html=1;fontSize=24;strokeColor=none;" parent="1" vertex="1">
          <mxGeometry x="1420" y="250" width="210" height="60" as="geometry" />
        </mxCell>
        <mxCell id="jNJo2oI_v9kwskUjXA3D-6" value="" style="rounded=0;whiteSpace=wrap;html=1;fillColor=none;dashed=1;" parent="1" vertex="1">
          <mxGeometry x="1800" y="280" width="270" height="620" as="geometry" />
        </mxCell>
        <mxCell id="jNJo2oI_v9kwskUjXA3D-7" value="Consume" style="rounded=0;whiteSpace=wrap;html=1;fontSize=24;strokeColor=none;" parent="1" vertex="1">
          <mxGeometry x="1875" y="250" width="120" height="60" as="geometry" />
        </mxCell>
        <mxCell id="jNJo2oI_v9kwskUjXA3D-8" value="Bronze Layer" style="rounded=0;whiteSpace=wrap;html=1;fillColor=#ffe6cc;strokeColor=#d79b00;fontStyle=1" parent="1" vertex="1">
          <mxGeometry x="1320" y="330" width="120" height="30" as="geometry" />
        </mxCell>
        <mxCell id="jNJo2oI_v9kwskUjXA3D-9" value="" style="rounded=0;whiteSpace=wrap;html=1;fillColor=none;strokeColor=#d79b00;" parent="1" vertex="1">
          <mxGeometry x="1320" y="370" width="120" height="520" as="geometry" />
        </mxCell>
        <mxCell id="jNJo2oI_v9kwskUjXA3D-10" value="Silver Layer" style="rounded=0;whiteSpace=wrap;html=1;fillColor=#f5f5f5;strokeColor=#666666;fontColor=#333333;fontStyle=1" parent="1" vertex="1">
          <mxGeometry x="1470" y="330" width="120" height="30" as="geometry" />
        </mxCell>
        <mxCell id="jNJo2oI_v9kwskUjXA3D-11" value="" style="rounded=0;whiteSpace=wrap;html=1;fillColor=none;strokeColor=#666666;fontColor=#333333;" parent="1" vertex="1">
          <mxGeometry x="1470" y="370" width="120" height="520" as="geometry" />
        </mxCell>
        <mxCell id="jNJo2oI_v9kwskUjXA3D-12" value="Gold Layer" style="rounded=0;whiteSpace=wrap;html=1;fillColor=#fff2cc;strokeColor=#d6b656;fontStyle=1" parent="1" vertex="1">
          <mxGeometry x="1610" y="330" width="120" height="30" as="geometry" />
        </mxCell>
        <mxCell id="jNJo2oI_v9kwskUjXA3D-13" value="" style="rounded=0;whiteSpace=wrap;html=1;fillColor=none;strokeColor=#d6b656;" parent="1" vertex="1">
          <mxGeometry x="1610" y="370" width="120" height="520" as="geometry" />
        </mxCell>
        <mxCell id="jNJo2oI_v9kwskUjXA3D-14" value="" style="image;aspect=fixed;html=1;points=[];align=center;fontSize=12;image=img/lib/azure2/general/Folder_Blank.svg;" parent="1" vertex="1">
          <mxGeometry x="1067.4" y="460" width="69" height="56.00000000000001" as="geometry" />
        </mxCell>
        <mxCell id="jNJo2oI_v9kwskUjXA3D-17" value="" style="aspect=fixed;sketch=0;html=1;dashed=0;whitespace=wrap;verticalLabelPosition=bottom;verticalAlign=top;fillColor=#2875E2;strokeColor=#ffffff;points=[[0.005,0.63,0],[0.1,0.2,0],[0.9,0.2,0],[0.5,0,0],[0.995,0.63,0],[0.72,0.99,0],[0.5,1,0],[0.28,0.99,0]];shape=mxgraph.kubernetes.icon2;kubernetesLabel=1;prIcon=api" parent="1" vertex="1">
          <mxGeometry x="1060.24" y="310" width="83.33" height="80" as="geometry" />
        </mxCell>
        <mxCell id="jNJo2oI_v9kwskUjXA3D-18" value="" style="image;aspect=fixed;html=1;points=[];align=center;fontSize=12;image=img/lib/azure2/general/File.svg;" parent="1" vertex="1">
          <mxGeometry x="1127.4" y="500" width="24.35" height="30" as="geometry" />
        </mxCell>
        <mxCell id="jNJo2oI_v9kwskUjXA3D-19" value="" style="image;aspect=fixed;html=1;points=[];align=center;fontSize=12;image=img/lib/azure2/general/Folder_Blank.svg;" parent="1" vertex="1">
          <mxGeometry x="1067.4" y="600" width="69" height="56.00000000000001" as="geometry" />
        </mxCell>
        <mxCell id="jNJo2oI_v9kwskUjXA3D-20" value="" style="image;aspect=fixed;html=1;points=[];align=center;fontSize=12;image=img/lib/azure2/general/File.svg;" parent="1" vertex="1">
          <mxGeometry x="1127.4" y="640" width="24.35" height="30" as="geometry" />
        </mxCell>
        <mxCell id="jNJo2oI_v9kwskUjXA3D-21" value="&lt;b&gt;HRM&lt;/b&gt;" style="text;html=1;align=center;verticalAlign=middle;resizable=0;points=[];autosize=1;strokeColor=none;fillColor=none;" parent="1" vertex="1">
          <mxGeometry x="1077.4" y="520" width="50" height="30" as="geometry" />
        </mxCell>
        <mxCell id="jNJo2oI_v9kwskUjXA3D-22" value="&lt;b&gt;ERP&lt;/b&gt;" style="text;html=1;align=center;verticalAlign=middle;resizable=0;points=[];autosize=1;strokeColor=none;fillColor=none;" parent="1" vertex="1">
          <mxGeometry x="1076.73" y="660" width="50" height="30" as="geometry" />
        </mxCell>
        <mxCell id="jNJo2oI_v9kwskUjXA3D-23" value="&lt;b&gt;Lifecare&lt;/b&gt;" style="text;html=1;align=center;verticalAlign=middle;resizable=0;points=[];autosize=1;strokeColor=none;fillColor=none;" parent="1" vertex="1">
          <mxGeometry x="1069.24" y="400" width="70" height="30" as="geometry" />
        </mxCell>
        <mxCell id="jNJo2oI_v9kwskUjXA3D-24" value="&lt;font&gt;&lt;b&gt;Object Type: &lt;/b&gt;Views, JSON&lt;/font&gt;&lt;div&gt;&lt;br&gt;&lt;div&gt;&lt;font&gt;&lt;b&gt;Interface&lt;/b&gt;: SQL-server, API&lt;/font&gt;&lt;/div&gt;&lt;/div&gt;" style="text;html=1;align=left;verticalAlign=middle;resizable=0;points=[];autosize=1;strokeColor=none;fillColor=none;" parent="1" vertex="1">
          <mxGeometry x="1021" y="730" width="170" height="60" as="geometry" />
        </mxCell>
        <mxCell id="jNJo2oI_v9kwskUjXA3D-31" value="" style="endArrow=none;html=1;rounded=0;strokeColor=#CCCCCC;strokeWidth=4;" parent="1" edge="1">
          <mxGeometry width="50" height="50" relative="1" as="geometry">
            <mxPoint x="1004.75" y="710" as="sourcePoint" />
            <mxPoint x="1207.24" y="710" as="targetPoint" />
          </mxGeometry>
        </mxCell>
        <mxCell id="jNJo2oI_v9kwskUjXA3D-32" value="" style="html=1;verticalLabelPosition=bottom;align=center;labelBackgroundColor=#ffffff;verticalAlign=top;strokeWidth=2;strokeColor=#d79b00;shadow=0;dashed=0;shape=mxgraph.ios7.icons.data;fillColor=#ffe6cc;" parent="1" vertex="1">
          <mxGeometry x="1360" y="483" width="40" height="57" as="geometry" />
        </mxCell>
        <mxCell id="jNJo2oI_v9kwskUjXA3D-33" value="" style="html=1;verticalLabelPosition=bottom;align=center;labelBackgroundColor=#ffffff;verticalAlign=top;strokeWidth=2;strokeColor=#666666;shadow=0;dashed=0;shape=mxgraph.ios7.icons.data;fillColor=#f5f5f5;fontColor=#333333;" parent="1" vertex="1">
          <mxGeometry x="1512" y="486" width="38" height="54" as="geometry" />
        </mxCell>
        <mxCell id="jNJo2oI_v9kwskUjXA3D-34" value="" style="html=1;verticalLabelPosition=bottom;align=center;labelBackgroundColor=#ffffff;verticalAlign=top;strokeWidth=2;strokeColor=#d6b656;shadow=0;dashed=0;shape=mxgraph.ios7.icons.data;fillColor=#fff2cc;" parent="1" vertex="1">
          <mxGeometry x="1650" y="486" width="40" height="54" as="geometry" />
        </mxCell>
        <mxCell id="jNJo2oI_v9kwskUjXA3D-36" value="" style="shape=flexArrow;endArrow=classic;html=1;rounded=0;fillColor=#dae8fc;strokeColor=#6c8ebf;" parent="1" edge="1">
          <mxGeometry width="50" height="50" relative="1" as="geometry">
            <mxPoint x="1570" y="540" as="sourcePoint" />
            <mxPoint x="1640" y="540" as="targetPoint" />
          </mxGeometry>
        </mxCell>
        <mxCell id="jNJo2oI_v9kwskUjXA3D-38" value="" style="shape=flexArrow;endArrow=classic;html=1;rounded=0;fillColor=#dae8fc;strokeColor=#6c8ebf;" parent="1" edge="1">
          <mxGeometry width="50" height="50" relative="1" as="geometry">
            <mxPoint x="1420" y="539" as="sourcePoint" />
            <mxPoint x="1490" y="539" as="targetPoint" />
          </mxGeometry>
        </mxCell>
        <mxCell id="jNJo2oI_v9kwskUjXA3D-40" value="" style="shape=flexArrow;endArrow=classic;html=1;rounded=0;fillColor=#dae8fc;strokeColor=#6c8ebf;" parent="1" edge="1">
          <mxGeometry width="50" height="50" relative="1" as="geometry">
            <mxPoint x="1730" y="540" as="sourcePoint" />
            <mxPoint x="1800" y="540" as="targetPoint" />
          </mxGeometry>
        </mxCell>
        <mxCell id="jNJo2oI_v9kwskUjXA3D-41" value="" style="shape=flexArrow;endArrow=classic;html=1;rounded=0;fillColor=#dae8fc;strokeColor=#6c8ebf;" parent="1" edge="1">
          <mxGeometry width="50" height="50" relative="1" as="geometry">
            <mxPoint x="1260" y="539" as="sourcePoint" />
            <mxPoint x="1330" y="539" as="targetPoint" />
          </mxGeometry>
        </mxCell>
        <mxCell id="jNJo2oI_v9kwskUjXA3D-42" value="Raw Data" style="text;html=1;align=center;verticalAlign=middle;whiteSpace=wrap;rounded=0;" parent="1" vertex="1">
          <mxGeometry x="1350" y="555" width="60" height="30" as="geometry" />
        </mxCell>
        <mxCell id="jNJo2oI_v9kwskUjXA3D-43" value="Cleaned, Standardized Data" style="text;html=1;align=center;verticalAlign=middle;whiteSpace=wrap;rounded=0;" parent="1" vertex="1">
          <mxGeometry x="1486.5" y="550" width="89" height="30" as="geometry" />
        </mxCell>
        <mxCell id="jNJo2oI_v9kwskUjXA3D-44" value="Business-Ready Data" style="text;html=1;align=center;verticalAlign=middle;whiteSpace=wrap;rounded=0;" parent="1" vertex="1">
          <mxGeometry x="1630" y="550" width="80" height="30" as="geometry" />
        </mxCell>
        <mxCell id="jNJo2oI_v9kwskUjXA3D-45" value="&lt;b&gt;Object Type: &lt;/b&gt;Table&lt;b&gt;&amp;nbsp;&lt;/b&gt;&lt;div style=&quot;text-align: left;&quot;&gt;&lt;br&gt;&lt;/div&gt;&lt;div style=&quot;text-align: left;&quot;&gt;&lt;b&gt;Load:&lt;/b&gt;&lt;/div&gt;&lt;div style=&quot;text-align: left;&quot;&gt;&lt;ul&gt;&lt;li&gt;Batch Processing&lt;/li&gt;&lt;li&gt;Full Load&lt;/li&gt;&lt;/ul&gt;&lt;div&gt;&lt;b&gt;No Transformations&lt;/b&gt;&lt;/div&gt;&lt;div&gt;&lt;b&gt;&lt;br&gt;&lt;/b&gt;&lt;/div&gt;&lt;div&gt;&lt;b&gt;Data Model: &lt;/b&gt;None as-is&lt;/div&gt;&lt;/div&gt;&lt;div style=&quot;text-align: left;&quot;&gt;&lt;span style=&quot;white-space: pre;&quot;&gt;&#x9;&lt;/span&gt;&lt;br&gt;&lt;/div&gt;" style="text;html=1;align=center;verticalAlign=middle;whiteSpace=wrap;rounded=0;" parent="1" vertex="1">
          <mxGeometry x="1320" y="680" width="120" height="30" as="geometry" />
        </mxCell>
        <mxCell id="jNJo2oI_v9kwskUjXA3D-47" value="" style="endArrow=none;html=1;rounded=0;strokeColor=#CCCCCC;strokeWidth=4;" parent="1" edge="1">
          <mxGeometry width="50" height="50" relative="1" as="geometry">
            <mxPoint x="1325" y="589.5" as="sourcePoint" />
            <mxPoint x="1435" y="589.5" as="targetPoint" />
          </mxGeometry>
        </mxCell>
        <mxCell id="jNJo2oI_v9kwskUjXA3D-48" value="" style="endArrow=none;html=1;rounded=0;strokeColor=#CCCCCC;strokeWidth=4;" parent="1" edge="1">
          <mxGeometry width="50" height="50" relative="1" as="geometry">
            <mxPoint x="1475" y="589.5" as="sourcePoint" />
            <mxPoint x="1585" y="589.5" as="targetPoint" />
          </mxGeometry>
        </mxCell>
        <mxCell id="jNJo2oI_v9kwskUjXA3D-49" value="" style="endArrow=none;html=1;rounded=0;strokeColor=#CCCCCC;strokeWidth=4;" parent="1" edge="1">
          <mxGeometry width="50" height="50" relative="1" as="geometry">
            <mxPoint x="1610" y="589.5" as="sourcePoint" />
            <mxPoint x="1720" y="589.5" as="targetPoint" />
          </mxGeometry>
        </mxCell>
        <mxCell id="jNJo2oI_v9kwskUjXA3D-50" value="&lt;b&gt;Object Type: &lt;/b&gt;Table&lt;b&gt;&amp;nbsp;&lt;/b&gt;&lt;div style=&quot;text-align: left;&quot;&gt;&lt;br&gt;&lt;/div&gt;&lt;div style=&quot;text-align: left;&quot;&gt;&lt;b&gt;Load:&amp;nbsp;&lt;/b&gt;&lt;/div&gt;&lt;div style=&quot;text-align: left;&quot;&gt;&lt;ul&gt;&lt;li&gt;Batch Processing&lt;/li&gt;&lt;li&gt;Full Load&lt;/li&gt;&lt;/ul&gt;&lt;div&gt;&lt;b&gt;Transformations:&lt;/b&gt;&lt;/div&gt;&lt;div&gt;&lt;ul&gt;&lt;li&gt;Cleansing&lt;/li&gt;&lt;li&gt;Standardization&lt;/li&gt;&lt;li&gt;Normalization&lt;/li&gt;&lt;li&gt;Derived Columns&lt;/li&gt;&lt;li&gt;Enrichment&lt;/li&gt;&lt;/ul&gt;&lt;/div&gt;&lt;/div&gt;&lt;div style=&quot;text-align: left;&quot;&gt;&lt;div&gt;&lt;b&gt;&lt;br&gt;&lt;/b&gt;&lt;/div&gt;&lt;div&gt;&lt;b&gt;Data Model: &lt;/b&gt;None (as-is)&lt;/div&gt;&lt;/div&gt;&lt;div style=&quot;text-align: left;&quot;&gt;&lt;span style=&quot;white-space: pre;&quot;&gt;&#x9;&lt;/span&gt;&lt;br&gt;&lt;/div&gt;" style="text;html=1;align=center;verticalAlign=middle;whiteSpace=wrap;rounded=0;" parent="1" vertex="1">
          <mxGeometry x="1471" y="740" width="120" height="30" as="geometry" />
        </mxCell>
        <mxCell id="jNJo2oI_v9kwskUjXA3D-51" value="&lt;b&gt;Object Type: &lt;/b&gt;Views&lt;b&gt;&amp;nbsp;&lt;/b&gt;&lt;div style=&quot;text-align: left;&quot;&gt;&lt;br&gt;&lt;/div&gt;&lt;div style=&quot;text-align: left;&quot;&gt;&lt;b&gt;&amp;nbsp;&lt;/b&gt;No&amp;nbsp;&lt;b&gt;Load&lt;/b&gt;&lt;/div&gt;&lt;div style=&quot;text-align: left;&quot;&gt;&lt;b&gt;&lt;br&gt;&lt;/b&gt;&lt;/div&gt;&lt;div style=&quot;text-align: left;&quot;&gt;&lt;div&gt;&lt;b&gt;Transformations:&lt;/b&gt;&lt;/div&gt;&lt;div&gt;&lt;ul&gt;&lt;li&gt;Aggregations&lt;/li&gt;&lt;li&gt;Integrations&lt;/li&gt;&lt;li&gt;Business Logics&lt;/li&gt;&lt;/ul&gt;&lt;/div&gt;&lt;/div&gt;&lt;div style=&quot;text-align: left;&quot;&gt;&lt;div&gt;&lt;b&gt;&lt;br&gt;&lt;/b&gt;&lt;/div&gt;&lt;div&gt;&lt;b&gt;Data Model:&amp;nbsp;&lt;/b&gt;&lt;/div&gt;&lt;div&gt;&lt;ul&gt;&lt;li&gt;Star Schema&lt;/li&gt;&lt;li&gt;Flat Table&lt;/li&gt;&lt;li&gt;Aggregated Table&lt;/li&gt;&lt;/ul&gt;&lt;/div&gt;&lt;/div&gt;&lt;div style=&quot;text-align: left;&quot;&gt;&lt;span style=&quot;white-space: pre;&quot;&gt;&#x9;&lt;/span&gt;&lt;br&gt;&lt;/div&gt;" style="text;html=1;align=center;verticalAlign=middle;whiteSpace=wrap;rounded=0;" parent="1" vertex="1">
          <mxGeometry x="1610" y="730" width="120" height="30" as="geometry" />
        </mxCell>
        <mxCell id="jNJo2oI_v9kwskUjXA3D-52" value="" style="image;aspect=fixed;html=1;points=[];align=center;fontSize=12;image=img/lib/azure2/power_platform/PowerBI.svg;" parent="1" vertex="1">
          <mxGeometry x="1903.5" y="360" width="60" height="80" as="geometry" />
        </mxCell>
        <mxCell id="jNJo2oI_v9kwskUjXA3D-53" value="" style="sketch=0;html=1;aspect=fixed;strokeColor=none;shadow=0;fillColor=#3B8DF1;verticalAlign=top;labelPosition=center;verticalLabelPosition=bottom;shape=mxgraph.gcp2.big_query" parent="1" vertex="1">
          <mxGeometry x="1885.5" y="500" width="99" height="100" as="geometry" />
        </mxCell>
        <mxCell id="jNJo2oI_v9kwskUjXA3D-54" value="" style="sketch=0;points=[[0,0,0],[0.25,0,0],[0.5,0,0],[0.75,0,0],[1,0,0],[0,1,0],[0.25,1,0],[0.5,1,0],[0.75,1,0],[1,1,0],[0,0.25,0],[0,0.5,0],[0,0.75,0],[1,0.25,0],[1,0.5,0],[1,0.75,0]];outlineConnect=0;fontColor=#232F3E;fillColor=#01A88D;strokeColor=#ffffff;dashed=0;verticalLabelPosition=bottom;verticalAlign=top;align=center;html=1;fontSize=12;fontStyle=0;aspect=fixed;shape=mxgraph.aws4.resourceIcon;resIcon=mxgraph.aws4.elastic_inference_2;" parent="1" vertex="1">
          <mxGeometry x="1894.5" y="690" width="78" height="78" as="geometry" />
        </mxCell>
        <mxCell id="jNJo2oI_v9kwskUjXA3D-55" value="BI &amp;amp; Reporting&lt;div&gt;&lt;br&gt;&lt;/div&gt;" style="text;html=1;align=center;verticalAlign=middle;whiteSpace=wrap;rounded=0;fontStyle=1" parent="1" vertex="1">
          <mxGeometry x="1877.5" y="453" width="115" height="30" as="geometry" />
        </mxCell>
        <mxCell id="jNJo2oI_v9kwskUjXA3D-57" value="&lt;div&gt;Ad-Hoc SQL Queries&lt;/div&gt;" style="text;html=1;align=center;verticalAlign=middle;whiteSpace=wrap;rounded=0;fontStyle=1" parent="1" vertex="1">
          <mxGeometry x="1885.5" y="610" width="115" height="30" as="geometry" />
        </mxCell>
        <mxCell id="jNJo2oI_v9kwskUjXA3D-58" value="Machine Learning" style="text;html=1;align=center;verticalAlign=middle;whiteSpace=wrap;rounded=0;fontStyle=1" parent="1" vertex="1">
          <mxGeometry x="1877.5" y="780" width="115" height="30" as="geometry" />
        </mxCell>
        <mxCell id="jNJo2oI_v9kwskUjXA3D-59" value="" style="image;aspect=fixed;html=1;points=[];align=center;fontSize=12;image=img/lib/azure2/databases/SQL_Database.svg;" parent="1" vertex="1">
          <mxGeometry x="1272" y="210" width="48" height="64" as="geometry" />
        </mxCell>
        <mxCell id="ppmPB_F46ZG9yFt1RUQ2-1" value="" style="image;aspect=fixed;html=1;points=[];align=center;fontSize=12;image=img/lib/azure2/databases/SQL_Database.svg;" vertex="1" parent="1">
          <mxGeometry x="1010" y="460" width="48" height="64" as="geometry" />
        </mxCell>
        <mxCell id="ppmPB_F46ZG9yFt1RUQ2-2" value="" style="image;aspect=fixed;html=1;points=[];align=center;fontSize=12;image=img/lib/azure2/databases/SQL_Database.svg;" vertex="1" parent="1">
          <mxGeometry x="1010" y="600" width="48" height="64" as="geometry" />
        </mxCell>
      </root>
    </mxGraphModel>
  </diagram>
</mxfile>
